<svg xmlns="http://www.w3.org/2000/svg" viewBox="0 0 64 64">
  <rect x="1" y="1" width="62" height="62" rx="11" fill="#f2f0e9" stroke="#171714" stroke-width="2"/>
  <g fill="#254d3b">
    <rect x="8" y="47" width="7" height="7"/>

    <rect x="18" y="37" width="7" height="7"/>
    <rect x="18" y="47" width="7" height="7"/>

    <rect x="28" y="27" width="7" height="7"/>
    <rect x="28" y="37" width="7" height="7"/>
    <rect x="28" y="47" width="7" height="7"/>

    <rect x="38" y="17" width="7" height="7"/>
    <rect x="38" y="27" width="7" height="7"/>
    <rect x="38" y="37" width="7" height="7"/>
    <rect x="38" y="47" width="7" height="7"/>

    <rect x="48" y="7" width="7" height="7"/>
    <rect x="48" y="17" width="7" height="7"/>
    <rect x="48" y="27" width="7" height="7"/>
    <rect x="48" y="37" width="7" height="7"/>
    <rect x="48" y="47" width="7" height="7"/>
  </g>
</svg>
